<?xml version="1.0" encoding="utf-8"?>
<!-- Generator: Adobe Illustrator 22.1.0, SVG Export Plug-In . SVG Version: 6.00 Build 0)  -->
<svg version="1.1" id="Layer_1" xmlns="http://www.w3.org/2000/svg" xmlns:xlink="http://www.w3.org/1999/xlink" x="0px" y="0px"
	 viewBox="0 0 500 200" style="enable-background:new 0 0 500 200;" xml:space="preserve">
<style type="text/css">
	.st0{display:none;}
	.st1{fill:none;}
	.st2{display:inline;fill:#FFFFFF;}
	.st3{font-family:'Raleway-ExtraLight';}
	.st4{font-size:49px;}
	.st5{font-family:'Raleway-Medium';}
	.st6{font-size:51px;}
	.st7{display:none;fill:#FFFFFF;}
	.st8{fill:#FFFFFF;}
	.st9{fill:none;stroke:#FFFFFF;stroke-width:2;stroke-miterlimit:10;}
</style>
<polyline class="st0" points="0,0 500,0 500,200 0,200 "/>
<rect y="76.4" class="st1" width="500" height="167.3"/>
<text transform="matrix(1 0 0 1 67.7207 113.6299)" class="st0"><tspan x="0" y="0" class="st2 st3 st4">FILM</tspan><tspan x="112.1" y="0" class="st2 st5 st6">PÅ</tspan><tspan x="178.4" y="0" class="st2 st3 st6">RIKTIGT</tspan></text>
<rect x="-317" y="76.4" class="st1" width="500" height="167.3"/>
<text transform="matrix(1 0 0 1 66.3652 113.6299)" class="st7 st3 st6">FILM</text>
<rect x="-317" y="76.4" class="st1" width="500" height="167.3"/>
<text transform="matrix(1 0 0 1 44.7402 113.6299)" class="st8 st3 st6">FOTO</text>
<g>
	<path class="st8" d="M186.7,113.6V96.5l4.2-19.1h10.9c1.6,0,3.1,0.3,4.4,1c1.3,0.7,2.5,1.5,3.5,2.7c1,1.1,1.7,2.3,2.3,3.7
		c0.5,1.4,0.8,2.8,0.8,4.2c0,1.5-0.3,2.9-0.8,4.3c-0.5,1.4-1.2,2.6-2.2,3.7c-0.9,1.1-2.1,2-3.4,2.6c-1.3,0.6-2.8,1-4.4,1h-10.8v13
		H186.7z M191.3,96.5h10.6c1,0,1.8-0.2,2.6-0.6c0.8-0.4,1.4-0.9,2-1.6c0.5-0.7,1-1.5,1.3-2.4c0.3-0.9,0.5-1.9,0.5-2.9
		c0-1.1-0.2-2-0.5-3c-0.4-0.9-0.8-1.7-1.4-2.4c-0.6-0.7-1.3-1.2-2.1-1.6c-0.8-0.4-1.6-0.6-2.5-0.6h-10.3V96.5z"/>
	<path class="st8" d="M226.9,77.4h3.9l8.5,20.9l-1.7,7.8l-1.2-3.1h-15.2l-4.2,10.6H212L226.9,77.4z M235.3,99.5l-6.5-16.7l-6.7,16.7
		H235.3z M224.6,70.4c0-1.1,0.4-1.9,1.2-2.6c0.8-0.6,1.8-0.9,3-0.9c1.2,0,2.2,0.3,3,0.9c0.8,0.6,1.1,1.5,1.1,2.6
		c0,1.1-0.4,1.9-1.1,2.6c-0.8,0.6-1.8,0.9-3,0.9c-1.2,0-2.2-0.3-3-0.9C225,72.4,224.6,71.5,224.6,70.4z M228.7,68.5
		c-0.6,0-1.1,0.2-1.5,0.5c-0.4,0.4-0.6,0.8-0.6,1.4c0,0.5,0.2,1,0.6,1.4c0.4,0.4,0.9,0.6,1.5,0.6c0.5,0,1-0.2,1.5-0.5
		c0.4-0.4,0.6-0.8,0.6-1.4s-0.2-1-0.6-1.4C229.8,68.7,229.3,68.5,228.7,68.5z"/>
	<path class="st8" d="M250.9,113.6V77.4h14.9c1.5,0,2.9,0.3,4.2,1c1.3,0.6,2.4,1.5,3.3,2.5s1.6,2.2,2.1,3.5c0.5,1.3,0.8,2.7,0.8,4
		c0,1.4-0.2,2.7-0.6,4c-0.4,1.3-1,2.4-1.8,3.4c-0.8,1-1.7,1.8-2.8,2.4c-1.1,0.6-2.3,1-3.6,1.2l9.1,14.2h-2l-9-14h-12.6v14H250.9z
		 M252.7,98h13.4c1.3,0,2.4-0.3,3.4-0.8c1-0.5,1.9-1.3,2.6-2.1c0.7-0.9,1.3-1.9,1.7-3.1c0.4-1.2,0.6-2.3,0.6-3.5
		c0-1.2-0.2-2.4-0.7-3.5c-0.5-1.1-1.1-2.1-1.9-3c-0.8-0.9-1.7-1.6-2.8-2.1c-1.1-0.5-2.2-0.8-3.4-0.8h-13.1V98z"/>
	<path class="st8" d="M283.8,113.6V77.4h1.8v36.2H283.8z"/>
	<path class="st8" d="M295.4,113.6V77.4h1.8v22.8l22.1-22.8h2.2l-15.2,15.9l16,20.3h-2.1L305,94.4l-7.9,8.1v11.2H295.4z"/>
	<path class="st8" d="M352.3,79.1h-13.6v34.6H337V79.1h-13.6v-1.6h28.9V79.1z"/>
	<path class="st8" d="M358.1,113.6V77.4h1.8v36.2H358.1z"/>
	<path class="st8" d="M396.8,107.7c-3.7,4.1-7.9,6.2-12.6,6.2c-2.5,0-4.8-0.5-6.9-1.6s-3.9-2.5-5.4-4.2c-1.5-1.7-2.7-3.7-3.5-5.9
		c-0.9-2.2-1.3-4.4-1.3-6.7c0-2.4,0.4-4.7,1.2-6.9c0.8-2.2,2-4.2,3.4-5.9c1.5-1.7,3.2-3.1,5.3-4.1c2-1,4.2-1.5,6.7-1.5
		c1.8,0,3.5,0.2,4.9,0.6c1.5,0.4,2.8,0.9,3.9,1.6c1.1,0.7,2.1,1.5,2.9,2.5c0.8,1,1.5,2,2.1,3.2l-1.5,0.8c-1.3-2.5-3-4.3-5.2-5.4
		c-2.1-1.1-4.5-1.6-7.2-1.6c-2.3,0-4.3,0.5-6.1,1.5c-1.8,1-3.4,2.2-4.6,3.8c-1.3,1.6-2.3,3.3-2.9,5.3c-0.7,2-1,4-1,6.1
		c0,2.2,0.4,4.3,1.2,6.3c0.8,2,1.9,3.8,3.3,5.3c1.4,1.5,3,2.8,4.9,3.7c1.9,0.9,3.9,1.4,6,1.4c2.3,0,4.4-0.5,6.5-1.6
		c2.1-1.1,4.1-2.7,6-5v-7.9h-8.4v-1.5h10v17.4h-1.6V107.7z"/>
	<path class="st8" d="M430.2,79.1h-13.6v34.6h-1.8V79.1h-13.6v-1.6h28.9V79.1z"/>
</g>
<line class="st9" x1="235" y1="118" x2="245" y2="72"/>
<line class="st9" x1="182" y1="118" x2="192" y2="72"/>
</svg>
